<svg width="25" height="25" viewBox="0 0 25 25" fill="none" xmlns="http://www.w3.org/2000/svg">
<path d="M24.1907 20.7656L19.5032 16.0781C19.2688 15.8906 18.9875 15.75 18.7063 15.75H17.9563C19.2219 14.1094 20.0188 12.0469 20.0188 9.75C20.0188 4.40625 15.6125 0 10.2688 0C4.87817 0 0.518799 4.40625 0.518799 9.75C0.518799 15.1406 4.87817 19.5 10.2688 19.5C12.5188 19.5 14.5813 18.75 16.2688 17.4375V18.2344C16.2688 18.5156 16.3625 18.7969 16.5969 19.0312L21.2375 23.6719C21.7063 24.1406 22.4094 24.1406 22.8313 23.6719L24.1438 22.3594C24.6125 21.9375 24.6125 21.2344 24.1907 20.7656ZM10.2688 15.75C6.94067 15.75 4.2688 13.0781 4.2688 9.75C4.2688 6.46875 6.94067 3.75 10.2688 3.75C13.55 3.75 16.2688 6.46875 16.2688 9.75C16.2688 13.0781 13.55 15.75 10.2688 15.75Z" fill="#B5AEAE"/>
</svg>
